<?xml version="1.0" encoding="UTF-8"?>
<svg id="Layer_1" data-name="Layer 1" xmlns="http://www.w3.org/2000/svg" width="98.01" height="120.36" viewBox="0 0 98.01 120.36">
  <defs>
    <style>
      .cls-1 {
        fill: #fff;
      }
    </style>
  </defs>
  <g id="ytLkTu.tif">
    <g>
      <path class="cls-1" d="M.04,61.5c.91-15.84,11.73-31.22,28.58-32.14,7.56-.41,11.6,2.99,18.24,4.76,5.28,1.41,9.92-1.78,14.81-3.37,11.02-3.58,23.08-1.34,30.98,7.4.51.57,1.84,2.08,2.13,2.68.06.12.13.19.04.33s-1.38.89-1.67,1.11c-8.81,6.6-12.96,16.59-10.63,27.56,1.76,8.32,7.84,15.05,15.5,18.47-2.39,8.04-6.74,15.59-11.88,22.18-5.57,7.15-11.43,11.92-21.05,8.8-5.35-1.73-8.11-4.01-14.32-3.86-7,.16-11.77,4.42-17.87,4.94h-3.13c-1.39-.3-2.77-.66-4.05-1.3-5.11-2.55-10.55-10.05-13.73-14.79-5.92-8.8-10.07-20.28-11.44-30.81l-.5-4.74c.1-2.38-.14-4.86,0-7.22Z"/>
      <path class="cls-1" d="M72.96,0c.54,3.68-.15,7.54-1.44,11.01-3.12,8.41-12.37,17.57-21.97,16.79-.98-.08-.94-.34-1.02-1.27-.6-7.23,3.96-15.67,9.38-20.22,4.11-3.45,9.61-6.16,15.04-6.31Z"/>
    </g>
  </g>
</svg>