<?xml version="1.0" encoding="UTF-8"?>
<svg id="Layer_1" data-name="Layer 1" xmlns="http://www.w3.org/2000/svg" width="86.07" height="86.63" viewBox="0 0 86.07 86.63">
  <defs>
    <style>
      .cls-1 {
        fill: #1a1a1a;
      }
    </style>
  </defs>
  <path class="cls-1" d="M30.07,1.89c24.88-7.66,51.7,8.83,55.48,34.59,6.21,42.3-45.47,67.52-74.24,36.05C-7.26,52.21-2.31,19.75,21.39,6.05c.47,11.49-.62,23.46-.01,34.9.39,7.35,2.21,13.85,7.99,18.73,11.59,9.78,30.44,4.17,34.12-10.67,4.98-20.12-17.13-35.18-33.42-22.14V1.89Z"/>
  <path class="cls-1" d="M40.39,30.43c18.7-2.91,20.9,24.01,4.39,25.91-17.4,2-19.76-23.52-4.39-25.91Z"/>
</svg>